<?xml version="1.0" encoding="UTF-8"?>
<svg width="30px" height="44px" viewBox="0 0 30 44" version="1.1" xmlns="http://www.w3.org/2000/svg" xmlns:xlink="http://www.w3.org/1999/xlink">
    <!-- Generator: Sketch 51.3 (57544) - http://www.bohemiancoding.com/sketch -->
    <title>phone (1)</title>
    <desc>Created with Sketch.</desc>
    <g id="Page-1" stroke="none" stroke-width="1" fill="none" fill-rule="evenodd">
        <g id="Desktop---Multiple-Phone-Numbers" transform="translate(-1624.000000, -516.000000)" fill="#F5801F">
            <g id="Sidebar" transform="translate(1260.000000, 173.000000)">
                <g id="Contact-Options" transform="translate(21.000000, 334.000000)">
                    <g id="Email" transform="translate(300.000000, 9.000000)">
                        <g id="phone-(1)" transform="translate(43.000000, 0.000000)">
                            <path d="M28.3050847,30.2604844 C29.2411864,30.2604844 30,29.4909141 30,28.5417344 L30,6.875 C30,3.084125 26.9586441,0 23.220339,0 L6.77966102,0 C3.04135593,0 0,3.084125 0,6.875 L0,37.125 C0,40.915875 3.04135593,44 6.77966102,44 L23.220339,44 C26.9586441,44 30,40.915875 30,37.125 C30,36.1757344 29.2411864,35.40625 28.3050847,35.40625 C27.3689831,35.40625 26.6101695,36.1757344 26.6101695,37.125 C26.6101695,39.0204375 25.0894915,40.5625 23.220339,40.5625 L6.77966102,40.5625 C4.91050847,40.5625 3.38983051,39.0204375 3.38983051,37.125 L3.38983051,6.875 C3.38983051,4.9795625 4.91050847,3.4375 6.77966102,3.4375 L23.220339,3.4375 C25.0894915,3.4375 26.6101695,4.9795625 26.6101695,6.875 L26.6101695,28.5417344 C26.6101695,29.4909141 27.3689831,30.2604844 28.3050847,30.2604844 Z" id="Shape"></path>
                            <circle id="Oval" cx="14.5" cy="35.5" r="1.5"></circle>
                            <path d="M19,7.5 C19,6.67155 18.216525,6 17.25,6 L13.75,6 C12.783475,6 12,6.67155 12,7.5 C12,8.32845 12.783475,9 13.75,9 L17.25,9 C18.216525,9 19,8.328375 19,7.5 Z" id="Shape"></path>
                        </g>
                    </g>
                </g>
            </g>
        </g>
    </g>
</svg>