<?xml version="1.0" encoding="UTF-8"?>
<svg width="41px" height="44px" viewBox="0 0 41 44" version="1.1" xmlns="http://www.w3.org/2000/svg" xmlns:xlink="http://www.w3.org/1999/xlink">
    <!-- Generator: Sketch 51.3 (57544) - http://www.bohemiancoding.com/sketch -->
    <title>wrench</title>
    <desc>Created with Sketch.</desc>
    <g id="Page-1" stroke="none" stroke-width="1" fill="none" fill-rule="evenodd">
        <g id="Desktop---Multiple-Phone-Numbers-Services" transform="translate(-1618.000000, -516.000000)" fill="#F5801F">
            <g id="Sidebar" transform="translate(1260.000000, 173.000000)">
                <g id="Contact-Options" transform="translate(55.000000, 334.000000)">
                    <g id="Email" transform="translate(251.000000, 9.000000)">
                        <g id="wrench" transform="translate(52.000000, 0.000000)">
                            <path d="M35.8127747,2.57846067 C34.8664551,1.63549805 33.6965637,0.805328391 32.429657,0.178253195 C31.8965759,-0.0852661563 31.2658081,-0.0550537109 30.7605896,0.258819602 C30.2553711,0.572021484 29.9482116,1.1245728 29.9482116,1.71875 L29.9482116,10.2201843 L26.7094421,12.3058471 L23.5025635,10.223877 L23.5025635,1.71875 C23.5025635,1.12490847 23.1960755,0.573028586 22.6915283,0.259490945 C22.1869812,-0.0543822812 21.5565491,-0.0852661562 21.0238037,0.177246094 C20.0956116,0.634796164 18.7457885,1.4226685 17.585968,2.57879634 C15.1864319,4.97061159 13.5422058,8.11370845 13.0749206,11.2024231 C12.5646667,14.5724487 13.4096069,17.7044678 15.460022,20.1224671 L1.7600403,33.9614258 C-0.530395508,36.2558899 -0.529388406,39.9861145 1.76373295,42.2792358 C2.91079714,43.4266357 4.41772461,44 5.92431641,44 C7.43124388,44 8.93817134,43.4263001 10.0852356,42.2792358 C10.7566223,41.6081848 10.7566223,40.5195312 10.0852356,39.8484802 C9.4138489,39.1770935 8.32553098,39.1770935 7.65447994,39.8484802 C6.70043945,40.8025208 5.14819336,40.8025208 4.19448855,39.8484802 C3.24044798,38.8944397 3.24044798,37.3425293 4.19448855,36.3884888 C4.19650266,36.3864746 4.19851687,36.3844604 4.20053098,36.3824463 L19.1190795,21.3125 C19.4655151,20.9623718 19.6451111,20.4806518 19.6125488,19.9891967 C19.5799866,19.4980774 19.3382874,19.04422 18.9485474,18.743103 C18.7786865,18.6118469 18.6333313,18.4859619 18.5161744,18.3694763 C16.8074951,16.6661682 16.0820618,14.3035583 16.4734802,11.7167053 C16.8333435,9.33999636 18.1234131,6.89682005 20.0126953,5.01324467 C20.0298157,4.99645996 20.0472718,4.97933958 20.0647278,4.96221928 L20.0647278,11.1571045 C20.0647278,11.7391967 20.3594665,12.282013 20.8475647,12.5989075 L25.769165,15.7940368 C26.3368225,16.1622924 27.0672913,16.1636353 27.6356201,15.7973938 L32.5975036,12.6029358 C33.0889587,12.286377 33.3857116,11.7418823 33.3857116,11.1577759 L33.3857116,5.01324467 C35.645935,7.26608274 36.9954224,10.2963867 36.9954224,13.1192322 C36.9954224,15.1760254 36.2649537,16.9914551 34.8825684,18.3694763 C33.9919739,19.2570495 31.94693,20.3366394 30.6447754,20.3987427 C30.5806579,20.4017639 30.5165405,20.4084778 30.4530945,20.4185486 C29.4352722,20.5827026 28.3852234,20.6787109 27.3318176,20.703888 C26.8883667,20.7146301 26.4660645,20.8965759 26.1535339,21.2114563 L13.3488464,34.1114807 C12.6801452,34.7852173 12.6841736,35.8735352 13.3575745,36.5422363 C14.0313111,37.2109375 15.1196289,37.2069092 15.7883301,36.5331726 L28.1153259,24.1148682 C29.0579529,24.0675354 29.9955444,23.9708557 30.9116516,23.8265075 C33.1691895,23.6784668 35.9225463,22.1863098 37.3092956,20.8039245 C39.3529968,18.7672729 40.4332581,16.1099244 40.4332581,13.1192322 C40.4332581,9.40277095 38.7061158,5.46240234 35.8127747,2.57846067 Z" id="Shape"></path>
                        </g>
                    </g>
                </g>
            </g>
        </g>
    </g>
</svg>