<?xml version="1.0" encoding="UTF-8"?>
<svg width="37px" height="44px" viewBox="0 0 37 44" version="1.1" xmlns="http://www.w3.org/2000/svg" xmlns:xlink="http://www.w3.org/1999/xlink">
    <!-- Generator: Sketch 51.3 (57544) - http://www.bohemiancoding.com/sketch -->
    <title>pin</title>
    <desc>Created with Sketch.</desc>
    <g id="Page-1" stroke="none" stroke-width="1" fill="none" fill-rule="evenodd">
        <g id="Desktop---Multiple-Locations" transform="translate(-1364.000000, -516.000000)" fill="#F5801F">
            <g id="Sidebar" transform="translate(1260.000000, 173.000000)">
                <g id="Contact-Options" transform="translate(46.000000, 334.000000)">
                    <g id="Call" transform="translate(0.000000, 9.000000)">
                        <g id="pin" transform="translate(58.000000, 0.000000)">
                            <path d="M19.5130333,22.768077 C20.4513687,22.6414741 21.1094122,21.7781403 20.9827236,20.8398906 C20.856035,19.9015551 19.9927012,19.2438545 19.0545372,19.3702002 C18.8479611,19.398058 18.6366706,19.4122012 18.4266659,19.4122012 C15.8744654,19.4122012 13.7979899,17.3357257 13.7979899,14.7835252 C13.7979899,12.2313247 15.8744654,10.1548492 18.4266659,10.1548492 C20.9788664,10.1548492 23.0553418,12.2313247 23.0553418,14.7835252 C23.0553418,15.0363023 23.0349414,15.2895081 22.9947405,15.5361993 C22.8424228,16.4706776 23.4764656,17.3517546 24.4108582,17.5040724 C25.346365,17.6563044 26.2264135,17.0223472 26.3787312,16.0879547 C26.4486756,15.6593736 26.4840764,15.2205065 26.4840764,14.7834395 C26.4840764,10.3405963 22.8695948,6.72611465 18.4267516,6.72611465 C13.9839084,6.72611465 10.3694268,10.3405963 10.3694268,14.7834395 C10.3694268,19.2262827 13.9839084,22.8407643 18.4267516,22.8407643 C18.7895884,22.8407643 19.155168,22.8162495 19.5130333,22.768077 Z" id="Shape"></path>
                            <path d="M34.2203988,34.1320671 C32.8968011,33.441948 31.0795535,32.8605206 28.8191566,32.4039474 C27.8874333,32.2160674 26.9796268,32.813914 26.7903571,33.7394603 C26.6011734,34.6650921 27.202707,35.568062 28.1339141,35.7561131 C31.6206929,36.4603424 33.0501956,37.3055886 33.4625455,37.7154697 C33.1587676,38.0180275 32.1429913,38.777586 29.1588098,39.4916497 C26.2274517,40.193057 22.4411106,40.5793355 18.4968153,40.5793355 C14.55252,40.5793355 10.7661789,40.193057 7.83490683,39.4916497 C4.85063925,38.777586 3.83494901,38.018113 3.53117109,37.7154697 C3.94352102,37.3055886 5.3729377,36.4603424 8.85980246,35.7561131 C9.79100957,35.568062 10.3925432,34.6650921 10.2033595,33.7394603 C10.0141758,32.8138285 9.10568105,32.2161529 8.17455998,32.4039474 C5.91416312,32.8605206 4.09691554,33.441948 2.77331785,34.1320671 C0.933099807,35.0915635 0,36.2982029 0,37.7182917 C0,39.840301 2.07904204,41.4828185 6.17931281,42.6001786 C9.49196338,43.5028919 13.8664172,44 18.4968153,44 C23.1272134,44 27.5016672,43.5028919 30.8143178,42.6001786 C34.9145885,41.4828185 36.9936306,39.840301 36.9936306,37.7182917 C36.9936306,36.2982029 36.0605308,35.0915635 34.2203988,34.1320671 Z" id="Shape"></path>
                            <path d="M17.0697055,36.3331473 C17.3849497,36.8315304 17.9338961,37.133758 18.5238716,37.133758 C19.1138471,37.133758 19.6627935,36.8315304 19.9780377,36.3330613 C21.555291,33.8394263 23.6082061,31.6520589 25.5935996,29.5368959 C29.4729528,25.4038743 33.4843388,21.1300538 33.4904459,14.782674 C33.4858011,10.8036887 31.9211919,7.0784507 29.0846821,4.29307502 C26.2653751,1.52463302 22.5147,0 18.5238716,0 C14.5354516,0 10.7981948,1.52661005 8.00056356,4.29857632 C5.19536306,7.07810686 3.6479569,10.8015397 3.6433121,14.7864561 C3.64941915,21.1404547 7.64127976,25.4218395 11.5017098,29.5623394 C13.4666317,31.6697662 15.4983872,33.8488817 17.0697055,36.3331473 Z M18.5238716,3.43831092 C24.8721075,3.43831092 30.0426288,8.52924599 30.0498541,14.7831038 C30.0451233,19.7685686 26.8193104,23.2052464 23.084204,27.1846615 C21.538174,28.8318703 19.9533515,30.5202529 18.5249038,32.405049 C17.1100464,30.5335763 15.5452653,28.8553368 14.0190187,27.2183569 C10.3003411,23.2300022 7.08880673,19.7854164 7.08390389,14.786714 C7.09121515,8.42308814 12.1162855,3.43831092 18.5238716,3.43831092 Z" id="Shape"></path>
                        </g>
                    </g>
                </g>
            </g>
        </g>
    </g>
</svg>