<svg xmlns="http://www.w3.org/2000/svg" xmlns:xlink="http://www.w3.org/1999/xlink" viewBox="0 0 385.53 81.37">
  <defs>
    <linearGradient id="ac8b0a8f-17ef-4c84-b7ce-2ab877fea07f" x1="35.23" y1="20.34" x2="70.47" y2="20.34" gradientUnits="userSpaceOnUse">
      <stop offset="0" stop-color="#e18339"/>
      <stop offset="0.3" stop-color="#df7836"/>
      <stop offset="0.82" stop-color="#d95c2d"/>
      <stop offset="1" stop-color="#d65029"/>
    </linearGradient>
    <linearGradient id="b7251c70-3651-417a-ae39-c6becba20e71" y1="61.04" x2="35.23" y2="61.04" gradientUnits="userSpaceOnUse">
      <stop offset="0" stop-color="#10143d"/>
      <stop offset="0.35" stop-color="#151e48"/>
      <stop offset="0.95" stop-color="#213964"/>
      <stop offset="1" stop-color="#223c67"/>
    </linearGradient>
    <linearGradient id="eb8a8e38-ee70-4117-afcb-ccb5715bb90f" y1="24.47" x2="35.23" y2="24.47" gradientUnits="userSpaceOnUse">
      <stop offset="0" stop-color="#4291cc"/>
      <stop offset="0.18" stop-color="#3673a9"/>
      <stop offset="0.44" stop-color="#264a7b"/>
      <stop offset="0.68" stop-color="#1a2d59"/>
      <stop offset="0.87" stop-color="#131b44"/>
      <stop offset="1" stop-color="#10143d"/>
    </linearGradient>
    <linearGradient id="e9403128-a728-46ca-9a24-bb2640d5188c" x1="35.23" y1="56.58" x2="70.47" y2="56.58" gradientUnits="userSpaceOnUse">
      <stop offset="0.27" stop-color="#e18339"/>
      <stop offset="0.39" stop-color="#e48e3b"/>
      <stop offset="0.61" stop-color="#ecaa41"/>
      <stop offset="0.88" stop-color="#f9d94b"/>
      <stop offset="1" stop-color="#ffee50"/>
    </linearGradient>
  </defs>
  <title>Click-Logo</title>
  <g id="ae472de3-792d-4bee-b64d-616ab59dffdd" data-name="Layer 2">
    <g id="e74818b2-d5d1-4969-b81e-3afb14b7f345" data-name="Layer 1">
      <g>
        <g>
          <path d="M64.51,16.9,35.23,0h0V25l27.4,15.68a24.51,24.51,0,0,0,7.84-8.89V27.23A11.93,11.93,0,0,0,64.51,16.9Z" style="fill: url(#ac8b0a8f-17ef-4c84-b7ce-2ab877fea07f)"/>
          <path d="M0,48.94v5.21A11.92,11.92,0,0,0,6,64.47l29.27,16.9v-25L7.85,40.71A24.62,24.62,0,0,0,0,48.94Z" style="fill: url(#b7251c70-3651-417a-ae39-c6becba20e71)"/>
        </g>
        <g>
          <path d="M96.4,66.72l-3.33-5.11h2.1l2.15,3.48,2.13-3.48h2.1l-3.31,5.11v3.54H96.4Z" style="fill: #10143d"/>
          <path d="M109.83,61.47a4.48,4.48,0,1,1-4.52,4.47A4.34,4.34,0,0,1,109.83,61.47Zm0,1.63a2.85,2.85,0,0,0,0,5.69,2.85,2.85,0,0,0,0-5.69Z" style="fill: #10143d"/>
          <path d="M119.55,61.61h1.86v5.14a2,2,0,1,0,4,0V61.61h1.87V66.8c0,2.15-1.24,3.62-3.86,3.62s-3.87-1.48-3.87-3.61Z" style="fill: #10143d"/>
          <path d="M136.07,67.16h-1.34v3.1h-1.85V61.61h4.05a2.7,2.7,0,0,1,2.91,2.79,2.48,2.48,0,0,1-1.9,2.57l1.95,3.29h-2.12Zm.59-4h-1.93v2.38h1.93a1.19,1.19,0,1,0,0-2.38Z" style="fill: #10143d"/>
          <path d="M152.33,61.61h4a2.78,2.78,0,1,1,0,5.55h-2.21v3.1h-1.84Zm3.8,1.59h-2v2.38h2a1.19,1.19,0,1,0,0-2.38Z" style="fill: #10143d"/>
          <path d="M164.32,61.61h6.12V63.2h-4.28v1.88h4.19v1.58h-4.19v2h4.28v1.59h-6.12Z" style="fill: #10143d"/>
          <path d="M179,67.16h-1.35v3.1h-1.84V61.61h4a2.69,2.69,0,0,1,2.91,2.79A2.49,2.49,0,0,1,180.84,67l1.94,3.29h-2.11Zm.58-4h-1.93v2.38h1.93a1.19,1.19,0,1,0,0-2.38Z" style="fill: #10143d"/>
          <path d="M188,61.61h6.12V63.2h-4.28v1.88H194v1.58h-4.19v3.6H188Z" style="fill: #10143d"/>
          <path d="M203.41,61.47a4.48,4.48,0,1,1-4.51,4.47A4.35,4.35,0,0,1,203.41,61.47Zm0,1.63a2.85,2.85,0,1,0,2.64,2.84A2.62,2.62,0,0,0,203.41,63.1Z" style="fill: #10143d"/>
          <path d="M216.32,67.16H215v3.1h-1.84V61.61h4.05a2.69,2.69,0,0,1,2.9,2.79A2.49,2.49,0,0,1,218.19,67l1.95,3.29H218Zm.59-4H215v2.38h1.94a1.19,1.19,0,1,0,0-2.38Z" style="fill: #10143d"/>
          <path d="M232.89,64l-2.44,6.22h-.8L227.21,64v6.22h-1.84V61.61H228l2.1,5.4,2.1-5.4h2.59v8.65h-1.85Z" style="fill: #10143d"/>
          <path d="M245.86,68.77H242l-.55,1.49h-2l3.35-8.65h2.31l3.33,8.65h-2Zm-3.37-1.59h2.87l-1.43-4Z" style="fill: #10143d"/>
          <path d="M255,64.45v5.81h-1.84V61.61H255l4,5.61V61.61h1.84v8.65h-1.77Z" style="fill: #10143d"/>
          <path d="M266.05,65.94a4.38,4.38,0,0,1,4.54-4.47,4,4,0,0,1,3.69,2.11l-1.58.78a2.39,2.39,0,0,0-2.11-1.26,2.85,2.85,0,0,0,0,5.69,2.37,2.37,0,0,0,2.11-1.26l1.58.76a4,4,0,0,1-3.69,2.13A4.38,4.38,0,0,1,266.05,65.94Z" style="fill: #10143d"/>
          <path d="M279.28,61.61h6.12V63.2h-4.28v1.88h4.19v1.58h-4.19v2h4.28v1.59h-6.12Z" style="fill: #10143d"/>
          <path d="M298,61.61h4a2.78,2.78,0,1,1,0,5.55h-2.2v3.1H298Zm3.8,1.59h-2v2.38h2a1.19,1.19,0,1,0,0-2.38Z" style="fill: #10143d"/>
          <path d="M314.49,68.77h-3.87l-.54,1.49h-2l3.35-8.65h2.31L317,70.26h-2Zm-3.38-1.59H314l-1.43-4Z" style="fill: #10143d"/>
          <path d="M324.93,67.16h-1.35v3.1h-1.84V61.61h4.05a2.69,2.69,0,0,1,2.9,2.79A2.49,2.49,0,0,1,326.8,67l1.94,3.29h-2.11Zm.58-4h-1.93v2.38h1.93a1.19,1.19,0,1,0,0-2.38Z" style="fill: #10143d"/>
          <path d="M335.84,63.23h-2.53V61.61h6.91v1.62H337.7v7h-1.86Z" style="fill: #10143d"/>
          <path d="M347.13,64.45v5.81h-1.84V61.61h1.89l4,5.61V61.61H353v8.65h-1.77Z" style="fill: #10143d"/>
          <path d="M358.64,61.61h6.12V63.2h-4.28v1.88h4.19v1.58h-4.19v2h4.28v1.59h-6.12Z" style="fill: #10143d"/>
          <path d="M373.29,67.16h-1.35v3.1H370.1V61.61h4a2.69,2.69,0,0,1,2.91,2.79,2.48,2.48,0,0,1-1.9,2.57l2,3.29H375Zm.58-4h-1.93v2.38h1.93a1.19,1.19,0,1,0,0-2.38Z" style="fill: #10143d"/>
        </g>
        <g>
          <path d="M88.12,29.66c0-12.08,9.13-20.32,20.62-20.32,9,0,14,4.71,16.73,9.6l-7.19,3.53a10.75,10.75,0,0,0-9.54-5.71c-6.83,0-12,5.48-12,12.9s5.19,12.9,12,12.9a10.65,10.65,0,0,0,9.54-5.72l7.19,3.48A18.24,18.24,0,0,1,108.74,50C97.25,50,88.12,41.73,88.12,29.66Z" style="fill: #10143d"/>
          <path d="M130.29,10h7.48V49.27h-7.48Z" style="fill: #10143d"/>
          <path d="M144.42,12.16a4.48,4.48,0,1,1,4.48,4.48A4.52,4.52,0,0,1,144.42,12.16Zm.77,8.66h7.48V49.27h-7.48Z" style="fill: #10143d"/>
          <path d="M173.34,20.12c5.83,0,9.37,2.53,11.25,5.12l-4.89,4.59a6.89,6.89,0,0,0-6-3.06c-4.54,0-7.72,3.3-7.72,8.25s3.18,8.3,7.72,8.3a7.17,7.17,0,0,0,6-3.06l4.89,4.53c-1.88,2.65-5.42,5.19-11.25,5.19-8.77,0-15.08-6.19-15.08-15S164.57,20.12,173.34,20.12Z" style="fill: #10143d"/>
          <path d="M200.37,38.32,197,42v7.3h-7.48V10H197V33.49l10.78-12.67h9.18l-11.24,12.9,11.6,15.55h-9.37Z" style="fill: #10143d"/>
          <path d="M222.16,10h12.55c12.19,0,19.85,8.9,19.85,19.68s-7.66,19.61-19.85,19.61H222.16Zm12.55,36.23c10.37,0,16.31-7.36,16.31-16.55s-5.89-16.61-16.31-16.61h-9.19V46.21Z" style="fill: #e18339"/>
          <path d="M274.87,20.12c8.66,0,13.43,6.89,13.43,15.07V36H264.51c.29,6.18,4.41,11.31,11.07,11.31a12.63,12.63,0,0,0,9.36-3.95l1.59,2A14.65,14.65,0,0,1,275.4,50c-8.3,0-14.25-6.19-14.25-15C261.15,26.77,267,20.12,274.87,20.12ZM264.51,33.6h20.67c-.06-4.83-3.24-10.83-10.37-10.83C268.1,22.77,264.74,28.66,264.51,33.6Z" style="fill: #e18339"/>
          <path d="M314.27,45.91A12.38,12.38,0,0,1,304.61,50c-4.89,0-9.95-3.36-9.95-9.49s5-9.36,9.95-9.36a12.36,12.36,0,0,1,9.66,4V29.36c0-4.18-3.41-6.54-7.65-6.54a11.06,11.06,0,0,0-8.9,4.19L296,25a13.66,13.66,0,0,1,10.9-4.83c5.83,0,10.43,2.76,10.43,9.13v20h-3.07Zm0-8.48a10.67,10.67,0,0,0-8.6-3.94c-4.71,0-7.77,3.06-7.77,7.06s3.06,7,7.77,7a10.6,10.6,0,0,0,8.6-3.89Z" style="fill: #e18339"/>
          <path d="M326.87,10h3.07V49.27h-3.07Z" style="fill: #e18339"/>
          <path d="M351.55,20.12C360.21,20.12,365,27,365,35.19V36h-23.8c.3,6.18,4.42,11.31,11.08,11.31a12.63,12.63,0,0,0,9.36-3.95l1.59,2A14.65,14.65,0,0,1,352.08,50c-8.3,0-14.25-6.19-14.25-15C337.83,26.77,343.66,20.12,351.55,20.12ZM341.18,33.6h20.68c-.06-4.83-3.24-10.83-10.37-10.83C344.78,22.77,341.42,28.66,341.18,33.6Z" style="fill: #e18339"/>
          <path d="M372.87,20.82h3.06v4.89c2.42-3.18,5.66-5.48,9.6-5.48v3.36a12.17,12.17,0,0,0-1.53-.12c-2.89,0-6.77,2.59-8.07,5.07V49.27h-3.06Z" style="fill: #e18339"/>
        </g>
        <path d="M35.13.06,6,16.9A11.93,11.93,0,0,0,0,27.23V48.94a24.62,24.62,0,0,1,7.85-8.23l1.7-1,16.61-9.5L35.23,25V0Z" style="fill: url(#eb8a8e38-ee70-4117-afcb-ccb5715bb90f)"/>
        <path d="M62.63,40.67l-3.41,2L43.7,51.54l-8.47,4.84v25h0l.13-.07L64.51,64.47a11.92,11.92,0,0,0,6-10.32V31.78A24.51,24.51,0,0,1,62.63,40.67Z" style="fill: url(#e9403128-a728-46ca-9a24-bb2640d5188c)"/>
      </g>
    </g>
  </g>
</svg>
